<svg xmlns="http://www.w3.org/2000/svg" xmlns:xlink="http://www.w3.org/1999/xlink" viewBox="0 0 266 32" preserveAspectRatio="xMidYMid" style="display: block; shape-rendering: auto; background: transparent;" width="266" height="32"><style type="text/css">
  .ld-text text {
    text-anchor: middle;
    dominant-baseline: middle;
    font-size: 32px;
    opacity: 0;
    user-select: none;
    pointer-events: none;
  }
</style>
<g style="transform-origin:133px 16px;transform:scale(1)" class="ld-text">
<g transform="translate(133,16)">
  <g transform="scale(0.4000) translate(0,0)"><g class="path" style="opacity: 0; transform-origin: -280.96px -1.26px; transform: matrix3d(0, 0, 0, 0, 0, 0, 0, 0, 0, 0, 0, 0, 0, 0, 0, 1); animation: 2.08333s linear -1.26923s 5 normal forwards running animate-9uj2y95hud9; transform-box: view-box;"><path d="M55.43-2.53L35.51 53.72L21.33 53.72L0.31-2.53L16.13-2.53L31.72 42.74L45.82-2.53L55.43-2.53" style="fill: rgb(210, 9, 98);" transform="translate(-308.830,-26.859)"></path></g><g class="path" style="opacity: 0; transform-origin: -228.92px 4.21px; transform: matrix3d(0, 0, 0, 0, 0, 0, 0, 0, 0, 0, 0, 0, 0, 0, 0, 1); animation: 2.08333s linear -1.16346s 5 normal forwards running animate-9uj2y95hud9; transform-box: view-box;"><path d="M105.08 31.06L105.08 31.06Q105.08 34.58 104.14 37.67Q103.20 40.75 101.54 43.37Q99.88 45.99 97.54 48.08Q95.20 50.17 92.40 51.61Q89.61 53.06 86.43 53.84Q83.24 54.62 79.88 54.62L79.88 54.62Q76.52 54.62 73.36 53.84Q70.20 53.06 67.40 51.61Q64.61 50.17 62.27 48.08Q59.92 45.99 58.26 43.37Q56.60 40.75 55.66 37.65Q54.73 34.54 54.73 31.06L54.73 31.06Q54.73 27.59 55.66 24.48Q56.60 21.38 58.26 18.76Q59.92 16.14 62.27 14.05Q64.61 11.96 67.40 10.52Q70.20 9.07 73.36 8.29Q76.52 7.51 79.88 7.51L79.88 7.51Q83.24 7.51 86.43 8.29Q89.61 9.07 92.40 10.52Q95.20 11.96 97.54 14.05Q99.88 16.14 101.54 18.76Q103.20 21.38 104.14 24.48Q105.08 27.59 105.08 31.06 zM91.64 31.06L91.64 31.06Q91.64 29.19 91.43 27.10Q91.21 25.01 90.70 23Q90.20 20.99 89.32 19.13Q88.44 17.27 87.15 15.89Q85.86 14.50 84.06 13.66Q82.27 12.82 79.88 12.82L79.88 12.82Q77.62 12.82 75.86 13.68Q74.10 14.54 72.79 15.97Q71.48 17.39 70.61 19.27Q69.73 21.14 69.18 23.15Q68.63 25.17 68.40 27.22Q68.16 29.27 68.16 31.06L68.16 31.06Q68.16 32.86 68.40 34.91Q68.63 36.96 69.18 38.99Q69.73 41.02 70.61 42.88Q71.48 44.74 72.79 46.16Q74.10 47.59 75.86 48.45Q77.62 49.31 79.88 49.31L79.88 49.31Q82.23 49.31 84.02 48.47Q85.82 47.63 87.13 46.22Q88.44 44.81 89.30 42.98Q90.16 41.14 90.68 39.11Q91.21 37.08 91.43 35.01Q91.64 32.94 91.64 31.06" style="fill: rgb(244, 119, 33);" transform="translate(-308.830,-26.859)"></path></g><g class="path" style="opacity: 0; transform-origin: -174.67px 4.83px; transform: matrix3d(0, 0, 0, 0, 0, 0, 0, 0, 0, 0, 0, 0, 0, 0, 0, 1); animation: 2.08333s linear -1.05769s 5 normal forwards running animate-9uj2y95hud9; transform-box: view-box;"><path d="M111.09 34.42L111.09 34.42Q111.09 31.34 111.62 28.02Q112.15 24.70 113.14 21.38Q114.14 18.06 115.55 14.81Q116.95 11.57 118.71 8.60L118.71 8.60L128.36 8.60Q127.38 11.53 126.62 14.72Q125.86 17.90 125.33 21.08Q124.80 24.27 124.51 27.31Q124.22 30.36 124.22 32.98L124.22 32.98Q124.22 34.50 124.36 36.24Q124.49 37.98 124.84 39.72Q125.20 41.45 125.84 43.06Q126.48 44.66 127.50 45.89Q128.52 47.12 129.98 47.84Q131.45 48.56 133.44 48.56L133.44 48.56Q135.39 48.56 136.93 47.68Q138.48 46.81 139.65 45.38Q140.82 43.95 141.64 42.12Q142.46 40.28 142.99 38.35Q143.52 36.42 143.77 34.56Q144.02 32.70 144.02 31.22L144.02 31.22L144.02 8.60L157.23 8.60L157.23 53.72L152.15 53.72L146.09 43.21Q144.96 45.83 143.34 47.96Q141.72 50.09 139.65 51.61Q137.58 53.13 135.06 53.95Q132.54 54.77 129.61 54.77L129.61 54.77Q124.92 54.77 121.45 53.25Q117.97 51.73 115.66 49.03Q113.36 46.34 112.23 42.61Q111.09 38.88 111.09 34.42" style="fill: rgb(122, 193, 67);" transform="translate(-308.830,-26.859)"></path></g><g class="path" style="opacity: 0; transform-origin: -122.6px 4.21px; transform: matrix3d(0, 0, 0, 0, 0, 0, 0, 0, 0, 0, 0, 0, 0, 0, 0, 1); animation: 2.08333s linear -0.951923s 5 normal forwards running animate-9uj2y95hud9; transform-box: view-box;"><path d="M207.07 39.31L207.07 39.31Q207.07 42.27 206.21 44.58Q205.35 46.88 203.87 48.58Q202.38 50.28 200.35 51.43Q198.32 52.59 196 53.29Q193.67 53.99 191.13 54.31Q188.59 54.62 186.09 54.62L186.09 54.62Q182.73 54.62 180.16 54.19Q177.58 53.76 175.23 52.80Q172.89 51.84 170.57 50.32Q168.24 48.80 165.39 46.61L165.39 46.61L173.09 40.32Q174.14 42.31 175.88 43.93Q177.62 45.56 179.49 46.73Q181.37 47.90 183.13 48.52Q184.88 49.15 185.98 49.15L185.98 49.15Q186.88 49.15 188.01 49.09Q189.14 49.03 190.31 48.86Q191.48 48.68 192.62 48.33Q193.75 47.98 194.63 47.37Q195.51 46.77 196.04 45.85Q196.56 44.93 196.56 43.64L196.56 43.64Q196.56 42.31 195.88 41.32Q195.20 40.32 194.10 39.58Q193.01 38.84 191.60 38.33Q190.20 37.82 188.77 37.43Q187.34 37.04 186.02 36.75Q184.69 36.45 183.71 36.18L183.71 36.18Q181.91 35.67 179.92 35.15Q177.93 34.62 175.98 33.93Q174.02 33.25 172.25 32.31Q170.47 31.38 169.12 30.07Q167.77 28.76 166.97 26.98Q166.17 25.20 166.17 22.82L166.17 22.82Q166.17 18.45 167.91 15.50Q169.65 12.55 172.50 10.77Q175.35 8.99 178.98 8.25Q182.62 7.51 186.37 7.51L186.37 7.51Q188.95 7.51 191.80 8.04Q194.65 8.56 197.34 9.60Q200.04 10.63 202.38 12.12Q204.73 13.60 206.29 15.52L206.29 15.52L198.59 21.84Q197.73 19.50 196.35 17.82Q194.96 16.14 193.34 15.07Q191.72 13.99 190.02 13.49Q188.32 12.98 186.88 12.98L186.88 12.98Q185.47 12.98 183.71 13.09Q181.95 13.21 180.41 13.76Q178.87 14.31 177.79 15.42Q176.72 16.53 176.72 18.49L176.72 18.49Q176.72 19.89 177.36 20.89Q178.01 21.88 179.06 22.61Q180.12 23.33 181.46 23.82Q182.81 24.31 184.22 24.68Q185.63 25.05 186.95 25.32Q188.28 25.59 189.34 25.91L189.34 25.91Q191.13 26.42 193.14 26.94Q195.16 27.47 197.11 28.15Q199.06 28.84 200.88 29.76Q202.70 30.67 204.06 32Q205.43 33.33 206.25 35.11Q207.07 36.88 207.07 39.31" style="fill: rgb(0, 167, 142);" transform="translate(-308.830,-26.859)"></path></g><g class="path" style="opacity: 0; transform-origin: -48.55px -1.38px; transform: matrix3d(0, 0, 0, 0, 0, 0, 0, 0, 0, 0, 0, 0, 0, 0, 0, 1); animation: 2.08333s linear -0.846154s 5 normal forwards running animate-9uj2y95hud9; transform-box: view-box;"><path d="M285 36.53L285 36.53Q285 40.17 284.08 42.94Q283.16 45.71 281.50 47.74Q279.84 49.77 277.58 51.14Q275.31 52.51 272.64 53.33Q269.96 54.15 266.97 54.50Q263.98 54.85 260.90 54.85L260.90 54.85Q256.84 54.85 253.40 54.25Q249.96 53.64 246.93 52.33Q243.91 51.02 241.11 48.95Q238.32 46.88 235.55 43.92L235.55 43.92L243.52 35.83Q244.61 38.52 246.52 40.81Q248.44 43.09 250.72 44.74Q253.01 46.38 255.47 47.31Q257.93 48.25 260.12 48.25L260.12 48.25Q262.70 48.25 264.96 47.88Q267.23 47.51 268.91 46.65Q270.59 45.79 271.54 44.36Q272.50 42.94 272.50 40.79L272.50 40.79Q272.50 39.15 271.76 37.98Q271.02 36.81 269.82 35.97Q268.63 35.13 267.11 34.54Q265.59 33.95 264 33.54Q262.42 33.13 260.90 32.80Q259.38 32.47 258.20 32.12L258.20 32.12Q255.90 31.45 253.40 30.69Q250.90 29.93 248.48 28.95Q246.05 27.98 243.89 26.71Q241.72 25.44 240.08 23.70Q238.44 21.96 237.46 19.68Q236.48 17.39 236.48 14.42L236.48 14.42Q236.48 10.87 237.36 8.11Q238.24 5.36 239.84 3.33Q241.45 1.30 243.63-0.09Q245.82-1.48 248.44-2.32Q251.05-3.16 254-3.53Q256.95-3.90 260.04-3.90L260.04-3.90Q264.26-3.90 267.71-3.12Q271.17-2.33 274.10-0.89Q277.03 0.56 279.47 2.57Q281.91 4.58 284.06 7.04L284.06 7.04L276.09 15.13Q275.16 12.31 273.50 10.05Q271.84 7.78 269.80 6.16Q267.77 4.54 265.55 3.66Q263.32 2.78 261.25 2.78L261.25 2.78Q258.55 2.78 256.29 3.15Q254.02 3.52 252.40 4.36Q250.78 5.20 249.88 6.63Q248.98 8.06 248.98 10.17L248.98 10.17Q248.98 11.84 249.65 13.02Q250.31 14.19 251.43 15.01Q252.54 15.83 253.95 16.36Q255.35 16.88 256.86 17.27Q258.36 17.67 259.82 17.96Q261.29 18.25 262.50 18.60L262.50 18.60Q264.84 19.27 267.42 20.01Q270 20.75 272.50 21.75Q275 22.74 277.27 24.03Q279.53 25.32 281.25 27.10Q282.97 28.88 283.98 31.20Q285 33.52 285 36.53" style="fill: rgb(0, 188, 228);" transform="translate(-308.830,-26.859)"></path></g><g class="path" style="opacity: 0; transform-origin: 6.98px 4.21px; transform: matrix3d(0, 0, 0, 0, 0, 0, 0, 0, 0, 0, 0, 0, 0, 0, 0, 1); animation: 2.08333s linear -0.740385s 5 normal forwards running animate-9uj2y95hud9; transform-box: view-box;"><path d="M340.98 31.06L340.98 31.06Q340.98 34.58 340.04 37.67Q339.10 40.75 337.44 43.37Q335.78 45.99 333.44 48.08Q331.09 50.17 328.30 51.61Q325.51 53.06 322.32 53.84Q319.14 54.62 315.78 54.62L315.78 54.62Q312.42 54.62 309.26 53.84Q306.09 53.06 303.30 51.61Q300.51 50.17 298.16 48.08Q295.82 45.99 294.16 43.37Q292.50 40.75 291.56 37.65Q290.63 34.54 290.63 31.06L290.63 31.06Q290.63 27.59 291.56 24.48Q292.50 21.38 294.16 18.76Q295.82 16.14 298.16 14.05Q300.51 11.96 303.30 10.52Q306.09 9.07 309.26 8.29Q312.42 7.51 315.78 7.51L315.78 7.51Q319.14 7.51 322.32 8.29Q325.51 9.07 328.30 10.52Q331.09 11.96 333.44 14.05Q335.78 16.14 337.44 18.76Q339.10 21.38 340.04 24.48Q340.98 27.59 340.98 31.06 zM327.54 31.06L327.54 31.06Q327.54 29.19 327.32 27.10Q327.11 25.01 326.60 23Q326.09 20.99 325.21 19.13Q324.34 17.27 323.05 15.89Q321.76 14.50 319.96 13.66Q318.16 12.82 315.78 12.82L315.78 12.82Q313.52 12.82 311.76 13.68Q310 14.54 308.69 15.97Q307.38 17.39 306.50 19.27Q305.63 21.14 305.08 23.15Q304.53 25.17 304.30 27.22Q304.06 29.27 304.06 31.06L304.06 31.06Q304.06 32.86 304.30 34.91Q304.53 36.96 305.08 38.99Q305.63 41.02 306.50 42.88Q307.38 44.74 308.69 46.16Q310 47.59 311.76 48.45Q313.52 49.31 315.78 49.31L315.78 49.31Q318.13 49.31 319.92 48.47Q321.72 47.63 323.03 46.22Q324.34 44.81 325.20 42.98Q326.05 41.14 326.58 39.11Q327.11 37.08 327.32 35.01Q327.54 32.94 327.54 31.06" style="fill: rgb(125, 63, 152);" transform="translate(-308.830,-26.859)"></path></g><g class="path" style="opacity: 0; transform-origin: 61.23px 4.83px; transform: matrix3d(0, 0, 0, 0, 0, 0, 0, 0, 0, 0, 0, 0, 0, 0, 0, 1); animation: 2.08333s linear -0.634615s 5 normal forwards running animate-9uj2y95hud9; transform-box: view-box;"><path d="M346.99 34.42L346.99 34.42Q346.99 31.34 347.52 28.02Q348.05 24.70 349.04 21.38Q350.04 18.06 351.45 14.81Q352.85 11.57 354.61 8.60L354.61 8.60L364.26 8.60Q363.28 11.53 362.52 14.72Q361.76 17.90 361.23 21.08Q360.70 24.27 360.41 27.31Q360.12 30.36 360.12 32.98L360.12 32.98Q360.12 34.50 360.25 36.24Q360.39 37.98 360.74 39.72Q361.09 41.45 361.74 43.06Q362.38 44.66 363.40 45.89Q364.41 47.12 365.88 47.84Q367.34 48.56 369.34 48.56L369.34 48.56Q371.29 48.56 372.83 47.68Q374.38 46.81 375.55 45.38Q376.72 43.95 377.54 42.12Q378.36 40.28 378.89 38.35Q379.41 36.42 379.67 34.56Q379.92 32.70 379.92 31.22L379.92 31.22L379.92 8.60L393.13 8.60L393.13 53.72L388.05 53.72L381.99 43.21Q380.86 45.83 379.24 47.96Q377.62 50.09 375.55 51.61Q373.48 53.13 370.96 53.95Q368.44 54.77 365.51 54.77L365.51 54.77Q360.82 54.77 357.34 53.25Q353.87 51.73 351.56 49.03Q349.26 46.34 348.13 42.61Q346.99 38.88 346.99 34.42" style="fill: rgb(210, 9, 98);" transform="translate(-308.830,-26.859)"></path></g><g class="path" style="opacity: 0; transform-origin: 118.38px 0.81px; transform: matrix3d(0, 0, 0, 0, 0, 0, 0, 0, 0, 0, 0, 0, 0, 0, 0, 1); animation: 2.08333s linear -0.528846s 5 normal forwards running animate-9uj2y95hud9; transform-box: view-box;"><path d="M450.27 27.86L450.27 27.86Q450.27 32.43 449.16 37.39Q448.05 42.35 446.05 47.12Q444.06 51.88 441.29 56.08Q438.52 60.28 435.20 63.33L435.20 63.33L430.23 60.63Q431.29 58.68 432.23 56.26Q433.16 53.84 433.93 51.12Q434.69 48.41 435.29 45.52Q435.90 42.63 436.31 39.79Q436.72 36.96 436.93 34.29Q437.15 31.61 437.15 29.31L437.15 29.31Q437.15 27.78 437.03 26.04Q436.91 24.31 436.54 22.57Q436.17 20.83 435.55 19.23Q434.92 17.63 433.89 16.42Q432.85 15.20 431.39 14.46Q429.92 13.72 427.93 13.72L427.93 13.72Q425.98 13.72 424.45 14.60Q422.93 15.48 421.76 16.90Q420.59 18.33 419.75 20.17Q418.91 22 418.38 23.93Q417.85 25.87 417.62 27.74Q417.38 29.62 417.38 31.10L417.38 31.10L417.38 53.72L404.14 53.72L404.14-8L417.34-8L417.34 15.24Q419.88 11.53 423.57 9.52Q427.27 7.51 431.76 7.51L431.76 7.51Q436.45 7.51 439.92 9.03Q443.40 10.56 445.70 13.27Q448.01 15.99 449.14 19.72Q450.27 23.45 450.27 27.86" style="fill: rgb(244, 119, 33);" transform="translate(-308.830,-26.859)"></path></g><g class="path" style="opacity: 0; transform-origin: 171.6px 4.21px; transform: matrix3d(0, 0, 0, 0, 0, 0, 0, 0, 0, 0, 0, 0, 0, 0, 0, 1); animation: 2.08333s linear -0.423077s 5 normal forwards running animate-9uj2y95hud9; transform-box: view-box;"><path d="M504.41 8.60L504.41 53.72L491.21 53.72L491.21 48.33Q488.87 51.53 485.57 53.08Q482.27 54.62 478.32 54.62L478.32 54.62Q473.16 54.62 469.10 52.78Q465.04 50.95 462.23 47.76Q459.41 44.58 457.93 40.28Q456.45 35.99 456.45 31.06L456.45 31.06Q456.45 26.14 457.93 21.84Q459.41 17.55 462.23 14.36Q465.04 11.18 469.10 9.34Q473.16 7.51 478.32 7.51L478.32 7.51Q480.94 7.51 483.30 8.29Q485.66 9.07 487.64 10.50Q489.61 11.92 491.11 13.93Q492.62 15.95 493.48 18.41L493.48 18.41L499.34 8.60L504.41 8.60 zM491.13 31.06L491.13 31.06Q491.13 29.31 490.96 27.35Q490.78 25.40 490.35 23.49Q489.92 21.57 489.16 19.83Q488.40 18.09 487.21 16.75Q486.02 15.40 484.34 14.62Q482.66 13.84 480.43 13.84L480.43 13.84Q478.20 13.84 476.56 14.64Q474.92 15.44 473.75 16.79Q472.58 18.13 471.82 19.89Q471.05 21.65 470.63 23.56Q470.20 25.48 470.02 27.41Q469.84 29.34 469.84 31.06L469.84 31.06Q469.84 32.78 470.02 34.74Q470.20 36.69 470.63 38.60Q471.05 40.52 471.82 42.27Q472.58 44.03 473.75 45.38Q474.92 46.73 476.56 47.53Q478.20 48.33 480.43 48.33L480.43 48.33Q482.46 48.33 484.04 47.49Q485.63 46.65 486.82 45.24Q488.01 43.84 488.83 42.04Q489.65 40.24 490.16 38.33Q490.66 36.42 490.90 34.52Q491.13 32.63 491.13 31.06" style="fill: rgb(122, 193, 67);" transform="translate(-308.830,-26.859)"></path></g><g class="path" style="opacity: 0; transform-origin: 213.26px -29.13px; transform: matrix3d(0, 0, 0, 0, 0, 0, 0, 0, 0, 0, 0, 0, 0, 0, 0, 1); animation: 2.08333s linear -0.317308s 5 normal forwards running animate-9uj2y95hud9; transform-box: view-box;"><path d="M529.30-2.30L529.30-2.30Q529.30-0.81 528.73 0.52Q528.16 1.84 527.19 2.82Q526.21 3.80 524.88 4.36Q523.55 4.93 522.07 4.93L522.07 4.93Q520.59 4.93 519.28 4.36Q517.97 3.80 516.99 2.82Q516.02 1.84 515.45 0.52Q514.88-0.81 514.88-2.30L514.88-2.30Q514.88-3.78 515.45-5.09Q516.02-6.40 516.99-7.37Q517.97-8.35 519.28-8.92Q520.59-9.48 522.07-9.48L522.07-9.48Q523.55-9.48 524.88-8.92Q526.21-8.35 527.19-7.37Q528.16-6.40 528.73-5.09Q529.30-3.78 529.30-2.30" style="fill: rgb(0, 167, 142);" transform="translate(-308.830,-26.859)"></path></g><g class="path" style="opacity: 0; transform-origin: 213.26px 4.32px; transform: matrix3d(0, 0, 0, 0, 0, 0, 0, 0, 0, 0, 0, 0, 0, 0, 0, 1); animation: 2.08333s linear -0.211538s 5 normal forwards running animate-9uj2y95hud9; transform-box: view-box;"><path d="M528.71 8.64L528.71 53.72L515.47 53.72L515.47 8.64L528.71 8.64" style="fill: rgb(0, 188, 228);" transform="translate(-308.830,-26.859)"></path></g><g class="path" style="opacity: 0; transform-origin: 244.04px -4px; transform: matrix3d(0, 0, 0, 0, 0, 0, 0, 0, 0, 0, 0, 0, 0, 0, 0, 1); animation: 2.08333s linear -0.105769s 5 normal forwards running animate-9uj2y95hud9; transform-box: view-box;"><path d="M556.76 13.84L556.76 53.72L543.52 53.72L543.52 13.84L535.31 13.84L535.31 8.60L543.52 8.60L543.52-8L556.76-8L556.76 8.60L570.43 8.60L570.43 13.84L556.76 13.84" style="fill: rgb(125, 63, 152);" transform="translate(-308.830,-26.859)"></path></g><g class="path" style="opacity: 0; transform-origin: 286.13px 4.21px; transform: matrix3d(0, 0, 0, 0, 0, 0, 0, 0, 0, 0, 0, 0, 0, 0, 0, 1); animation: 2.08333s linear 0s 5 normal forwards running animate-9uj2y95hud9; transform-box: view-box;"><path d="M585.43 32.31L585.43 32.31Q587.85 32.86 590.27 33.17Q592.70 33.49 595.16 33.49L595.16 33.49Q597.73 33.49 599.94 33Q602.15 32.51 603.77 31.36Q605.39 30.20 606.33 28.29Q607.27 26.38 607.27 23.52L607.27 23.52Q607.27 21.22 606.64 19.31Q606.02 17.39 604.79 16.02Q603.55 14.66 601.76 13.90Q599.96 13.13 597.58 13.13L597.58 13.13Q595.35 13.13 593.57 13.95Q591.80 14.77 590.45 16.16Q589.10 17.55 588.14 19.38Q587.19 21.22 586.56 23.21Q585.94 25.20 585.66 27.24Q585.39 29.27 585.39 31.06L585.39 31.06Q585.39 31.38 585.39 31.69Q585.39 32 585.43 32.31 zM617.97 23.41L617.97 23.41Q617.97 26.18 617.07 28.35Q616.17 30.52 614.63 32.16Q613.09 33.80 611.05 34.93Q609.02 36.06 606.72 36.79Q604.41 37.51 601.97 37.82Q599.53 38.13 597.23 38.13L597.23 38.13Q594.30 38.13 591.45 37.72Q588.59 37.31 585.82 36.42L585.82 36.42Q586.25 38.99 587.19 41.32Q588.13 43.64 589.69 45.38Q591.25 47.12 593.54 48.13Q595.82 49.15 598.95 49.15L598.95 49.15Q601.02 49.15 602.89 48.52Q604.77 47.90 606.33 46.77Q607.89 45.63 609.08 44.07Q610.27 42.51 611.02 40.59L611.02 40.59L616.72 42.70Q615.43 45.79 613.18 48.04Q610.94 50.28 608.11 51.75Q605.27 53.21 602.09 53.92Q598.91 54.62 595.78 54.62L595.78 54.62Q590.63 54.62 586.25 52.88Q581.88 51.14 578.71 48.02Q575.55 44.89 573.75 40.56Q571.95 36.22 571.95 31.06L571.95 31.06Q571.95 25.91 573.75 21.57Q575.55 17.24 578.71 14.11Q581.88 10.99 586.25 9.25Q590.63 7.51 595.78 7.51L595.78 7.51Q598.28 7.51 600.90 7.86Q603.52 8.21 605.98 8.97Q608.44 9.74 610.63 10.95Q612.81 12.16 614.43 13.93Q616.05 15.71 617.01 18.06Q617.97 20.40 617.97 23.41" style="fill: rgb(210, 9, 98);" transform="translate(-308.830,-26.859)"></path></g></g><text dy="0.35em" fill="#d20962" font-family="Aclonica" font-size="32">Vous Souhaite</text>
</g>
</g><style type="text/css">@keyframes animate-9uj2y95hud9 { 0.00% {animation-timing-function: cubic-bezier(0.68,0.62,0.35,0.29);transform: translate(0.00px,0.00px) rotate(0.00deg) scale(0.00, 0.00) skew(0deg, 0.00deg) ;opacity: 0.00;}4.00% {transform: translate(0.00px,0.00px) rotate(0.00deg) scale(0.47, 0.47) ;opacity: 0.40;}6.00% {transform: translate(0.00px,0.00px) rotate(0.00deg) scale(0.73, 0.73) ;opacity: 0.60;}8.00% {transform: translate(0.00px,0.00px) rotate(0.00deg) scale(0.95, 0.95) ;opacity: 0.80;}10.00% {transform: translate(0.00px,0.00px) rotate(0.00deg) scale(1.09, 1.09) ;opacity: 1.00;}12.00% {transform: translate(0.00px,0.00px) rotate(0.00deg) scale(1.15, 1.15) ;opacity: 1.00;}16.00% {transform: translate(0.00px,0.00px) rotate(0.00deg) scale(1.03, 1.03) ;opacity: 1.00;}18.00% {transform: translate(0.00px,0.00px) rotate(0.00deg) scale(0.90, 0.90) ;opacity: 1.00;}22.00% {transform: translate(0.00px,0.00px) rotate(0.00deg) scale(0.67, 0.67) ;opacity: 1.00;}24.00% {animation-timing-function: cubic-bezier(0.79,0.32,0.40,0.05);transform: translate(0.00px,0.00px) rotate(0.00deg) scale(0.63, 0.63) ;opacity: 1.00;}30.00% {transform: translate(0.00px,0.00px) rotate(0.00deg) scale(0.82, 0.82) ;opacity: 1.00;}32.00% {transform: translate(0.00px,0.00px) rotate(0.00deg) scale(0.93, 0.93) ;opacity: 1.00;}36.00% {transform: translate(0.00px,0.00px) rotate(0.00deg) scale(1.07, 1.07) ;opacity: 1.00;}38.00% {transform: translate(0.00px,0.00px) rotate(0.00deg) scale(1.08, 1.08) ;opacity: 1.00;}42.00% {transform: translate(0.00px,0.00px) rotate(0.00deg) scale(0.99, 0.99) ;opacity: 1.00;}44.00% {transform: translate(0.00px,0.00px) rotate(0.00deg) scale(0.91, 0.91) ;opacity: 1.00;}48.00% {transform: translate(0.00px,0.00px) rotate(0.00deg) scale(0.81, 0.81) ;opacity: 1.00;}50.00% {transform: translate(0.00px,0.00px) rotate(0.00deg) scale(0.80, 0.80) ;opacity: 1.00;}54.00% {transform: translate(0.00px,0.00px) rotate(0.00deg) scale(0.88, 0.88) ;opacity: 1.00;}56.00% {transform: translate(0.00px,0.00px) rotate(0.00deg) scale(0.94, 0.94) ;opacity: 1.00;}60.00% {transform: translate(0.00px,0.00px) rotate(0.00deg) scale(1.03, 1.03) ;opacity: 1.00;}62.00% {transform: translate(0.00px,0.00px) rotate(0.00deg) scale(1.04, 1.04) ;opacity: 1.00;}66.00% {transform: translate(0.00px,0.00px) rotate(0.00deg) scale(1.01, 1.01) ;opacity: 1.00;}68.00% {transform: translate(0.00px,0.00px) rotate(0.00deg) scale(0.98, 0.98) ;opacity: 1.00;}72.00% {transform: translate(0.00px,0.00px) rotate(0.00deg) scale(0.92, 0.92) ;opacity: 1.00;}74.00% {transform: translate(0.00px,0.00px) rotate(0.00deg) scale(0.91, 0.91) ;opacity: 1.00;}78.00% {transform: translate(0.00px,0.00px) rotate(0.00deg) scale(0.94, 0.94) ;opacity: 1.00;}80.00% {transform: translate(0.00px,0.00px) rotate(0.00deg) scale(0.96, 0.96) ;opacity: 1.00;}84.00% {transform: translate(0.00px,0.00px) rotate(0.00deg) scale(1.00, 1.00) ;opacity: 1.00;}86.00% {transform: translate(0.00px,0.00px) rotate(0.00deg) scale(1.01, 1.01) ;opacity: 1.00;}90.00% {transform: translate(0.00px,0.00px) rotate(0.00deg) scale(1.01, 1.01) ;opacity: 1.00;}92.00% {animation-timing-function: cubic-bezier(0.60,0.94,0.21,0.66);transform: translate(0.00px,0.00px) rotate(0.00deg) scale(1.00, 1.00) ;opacity: 1.00;}96.00% {transform: translate(0.00px,0.00px) rotate(0.00deg) scale(0.99, 0.99) ;opacity: 1.00;}100.00% {transform: translate(0.00px,0.00px) rotate(0.00deg) scale(1.00, 1.00) ;opacity: 1.00;} }</style><!-- [ldio] generated by https://loading.io --></svg>