<svg xmlns="http://www.w3.org/2000/svg" xmlns:xlink="http://www.w3.org/1999/xlink" viewBox="0 0 190 43" preserveAspectRatio="xMidYMid" style="display: block; shape-rendering: auto; background: transparent;" width="100%" height="100%"><style type="text/css">
  .ld-text text {
    text-anchor: middle;
    dominant-baseline: middle;
    font-size: 31px;
    opacity: 0;
    user-select: none;
    pointer-events: none;
  }
</style>
<g style="transform-origin:95px 21.5px;transform:scale(1)" class="ld-text">
<g transform="translate(95,21.5)">
  <g transform="scale(0.3875) translate(0,0)"><g class="path" style="opacity: 1; transform-origin: -193.32px 5.06px; transform: matrix3d(0.91, 0, 0, 0, 0, 0.91, 0, 0, 0, 0, 0.91, 0, 0, 0, 0, 1); animation: 0.462963s linear -0.280093s 32 normal forwards running animate-luhvcwxn9; transform-box: view-box;"><path d="M31.12 11.55L28.16 11.55L28.16 10.11L48.80 10.11L48.80 11.55L45.52 11.55L52.72 38.51L59.84 11.55L54.32 11.55L54.32 10.11L65.12 10.11L65.12 11.55L61.76 11.55L52.16 48.19L41.20 48.19L34.24 23.63L26.72 48.19L16 48.19L4.16 11.55L0.56 11.55L0.56 10.11L24.80 10.11L24.80 11.55L20 11.55L27.36 38.75L33.12 20.03L31.12 11.55" style="fill: rgb(249, 57, 109);" transform="translate(-226.160,-24.093)"></path></g><g class="path" style="opacity: 1; transform-origin: -146.68px -26.94px; transform: matrix3d(0.91, 0, 0, 0, 0, 0.91, 0, 0, 0, 0, 0.91, 0, 0, 0, 0, 1); animation: 0.462963s linear -0.25463s 32 normal forwards running animate-luhvcwxn9; transform-box: view-box;"><path d="M79.28 4.59Q75.04 4.59 73.24 2.43Q71.44 0.27 71.44-2.93Q71.44-6.13 73.40-8.21Q75.36-10.29 79.36-10.29Q83.36-10.29 85.44-8.41Q87.52-6.53 87.52-3.05Q87.52 0.43 85.52 2.51Q83.52 4.59 79.28 4.59" style="fill: rgb(251, 176, 52);" transform="translate(-226.160,-24.093)"></path></g><g class="path" style="opacity: 1; transform-origin: -146.92px 5.06px; transform: matrix3d(0.91, 0, 0, 0, 0, 0.91, 0, 0, 0, 0, 0.91, 0, 0, 0, 0, 1); animation: 0.462963s linear -0.229167s 32 normal forwards running animate-luhvcwxn9; transform-box: view-box;"><path d="M67.20 11.55L67.20 10.11L86.80 10.11L86.80 46.75L91.28 46.75L91.28 48.19L67.52 48.19L67.52 46.75L71.92 46.75L71.92 11.55L67.20 11.55" style="fill: rgb(255, 221, 0);" transform="translate(-226.160,-24.093)"></path></g><g class="path" style="opacity: 1; transform-origin: -116.2px 4.98px; transform: matrix3d(0.91, 0, 0, 0, 0, 0.91, 0, 0, 0, 0, 0.91, 0, 0, 0, 0, 1); animation: 0.462963s linear -0.203704s 32 normal forwards running animate-luhvcwxn9; transform-box: view-box;"><path d="M95.68 48.99L94.72 48.99L94.72 34.67L95.68 34.67Q97.76 41.63 101.28 44.43Q104.80 47.23 110.08 47.23L110.08 47.23Q118.24 47.23 118.24 42.03L118.24 42.03Q118.24 39.79 116.24 38.67L116.24 38.67Q113.12 36.91 108.24 35.95L108.24 35.95Q102.80 34.51 99.12 32.11L99.12 32.11Q94.72 29.23 94.72 22.99Q94.72 16.75 98.56 13.03Q102.40 9.31 108.80 9.31L108.80 9.31Q112.72 9.31 116.88 11.15L116.88 11.15Q118.40 11.79 119.20 11.79Q120 11.79 120.56 11.23Q121.12 10.67 121.92 9.15L121.92 9.15L122.80 9.15L122.80 21.39L121.84 21.39Q117.76 10.99 109.20 10.99L109.20 10.99Q105.44 10.99 103.60 12.31Q101.76 13.63 101.76 15.63L101.76 15.63Q101.76 16.83 102.32 17.51Q102.88 18.19 103.20 18.51Q103.52 18.83 104.24 19.19Q104.96 19.55 105.44 19.75Q105.92 19.95 106.92 20.27Q107.92 20.59 108.40 20.67L108.40 20.67Q113.84 22.03 116.24 23.03Q118.64 24.03 120.80 25.47L120.80 25.47Q125.20 28.51 125.20 35.27Q125.20 42.03 121.20 45.51Q117.20 48.99 110.24 48.99L110.24 48.99Q105.28 48.99 100.64 46.67L100.64 46.67Q99.68 46.03 99.12 46.03L99.12 46.03Q97.36 46.03 95.68 48.99L95.68 48.99" style="fill: rgb(193, 216, 47);" transform="translate(-226.160,-24.093)"></path></g><g class="path" style="opacity: 1; transform-origin: -74.52px -5.9px; transform: matrix3d(0.91, 0, 0, 0, 0, 0.91, 0, 0, 0, 0, 0.91, 0, 0, 0, 0, 1); animation: 0.462963s linear -0.178241s 32 normal forwards running animate-luhvcwxn9; transform-box: view-box;"><path d="M127.60-10.37L127.60-11.81L146.88-11.81L146.88 17.47Q148.16 13.79 150.80 11.55Q153.44 9.31 158.80 9.31L158.80 9.31Q171.20 9.31 171.20 22.67L171.20 22.67L171.20 46.75L175.68 46.75L175.68 48.19L153.04 48.19L153.04 46.75L156.32 46.75L156.32 20.75Q156.32 15.95 155.68 14.55Q155.04 13.15 153.36 13.15L153.36 13.15Q150.80 13.15 148.84 16.51Q146.88 19.87 146.88 24.67L146.88 24.67L146.88 46.75L150.32 46.75L150.32 48.19L127.60 48.19L127.60 46.75L132 46.75L132-10.37L127.60-10.37" style="fill: rgb(72, 197, 246);" transform="translate(-226.160,-24.093)"></path></g><g class="path" style="opacity: 1; transform-origin: -37.32px -26.94px; transform: matrix3d(0.91, 0, 0, 0, 0, 0.91, 0, 0, 0, 0, 0.91, 0, 0, 0, 0, 1); animation: 0.462963s linear -0.152778s 32 normal forwards running animate-luhvcwxn9; transform-box: view-box;"><path d="M188.64 4.59Q184.40 4.59 182.60 2.43Q180.80 0.27 180.80-2.93Q180.80-6.13 182.76-8.21Q184.72-10.29 188.72-10.29Q192.72-10.29 194.80-8.41Q196.88-6.53 196.88-3.05Q196.88 0.43 194.88 2.51Q192.88 4.59 188.64 4.59" style="fill: rgb(227, 153, 74);" transform="translate(-226.160,-24.093)"></path></g><g class="path" style="opacity: 1; transform-origin: -37.56px 5.06px; transform: matrix3d(0.91, 0, 0, 0, 0, 0.91, 0, 0, 0, 0, 0.91, 0, 0, 0, 0, 1); animation: 0.462963s linear -0.127315s 32 normal forwards running animate-luhvcwxn9; transform-box: view-box;"><path d="M176.56 11.55L176.56 10.11L196.16 10.11L196.16 46.75L200.64 46.75L200.64 48.19L176.88 48.19L176.88 46.75L181.28 46.75L181.28 11.55L176.56 11.55" style="fill: rgb(241, 158, 238);" transform="translate(-226.160,-24.093)"></path></g><g class="path" style="opacity: 1; transform-origin: 0.28px 4.66px; transform: matrix3d(0.91, 0, 0, 0, 0, 0.91, 0, 0, 0, 0, 0.91, 0, 0, 0, 0, 1); animation: 0.462963s linear -0.101852s 32 normal forwards running animate-luhvcwxn9; transform-box: view-box;"><path d="M202.40 11.55L202.40 10.11L221.68 10.11L221.68 17.47Q222.96 13.79 225.60 11.55Q228.24 9.31 233.60 9.31L233.60 9.31Q246 9.31 246 22.67L246 22.67L246 46.75L250.48 46.75L250.48 48.19L227.84 48.19L227.84 46.75L231.12 46.75L231.12 20.75Q231.12 15.95 230.48 14.55Q229.84 13.15 228.16 13.15L228.16 13.15Q225.60 13.15 223.64 16.51Q221.68 19.87 221.68 24.67L221.68 24.67L221.68 46.75L225.12 46.75L225.12 48.19L202.40 48.19L202.40 46.75L206.80 46.75L206.80 11.55L202.40 11.55" style="fill: rgb(249, 57, 109);" transform="translate(-226.160,-24.093)"></path></g><g class="path" style="opacity: 1; transform-origin: 45.44px 9.46px; transform: matrix3d(0.91, 0, 0, 0, 0, 0.91, 0, 0, 0, 0, 0.91, 0, 0, 0, 0, 1); animation: 0.462963s linear -0.0763889s 32 normal forwards running animate-luhvcwxn9; transform-box: view-box;"><path d="M283.60 5.95L283.60 5.95L285.84 4.59Q286.32 2.11 283.92 2.11L283.92 2.11Q280.48 2.11 280.48 7.39L280.48 7.39Q280.48 9.47 281.04 12.19L281.04 12.19Q287.12 16.27 287.12 22.63Q287.12 28.99 282.72 32.51Q278.32 36.03 270.80 36.03L270.80 36.03Q267.68 36.03 264.32 35.39L264.32 35.39Q260.80 37.63 260.80 38.75Q260.80 39.87 265.92 39.87L265.92 39.87L274.08 39.87Q292.24 39.87 292.24 52.91L292.24 52.91Q292.24 59.95 286.76 64.07Q281.28 68.19 269.68 68.19L269.68 68.19Q249.92 68.19 249.92 59.63L249.92 59.63Q249.92 54.99 256.08 53.23L256.08 53.23L260.88 55.39Q260.24 57.71 260.24 59.79L260.24 59.79Q260.24 66.67 270.48 66.67L270.48 66.67Q276.72 66.67 280.08 64.35Q283.44 62.03 283.44 58.59Q283.44 55.15 281.40 53.99Q279.36 52.83 273.28 52.83L273.28 52.83L265.52 52.83Q259.04 52.83 256.24 50.67Q253.44 48.51 253.44 45.35Q253.44 42.19 255.44 40.07Q257.44 37.95 262.56 34.83L262.56 34.83Q253.28 32.19 253.28 22.67L253.28 22.67Q253.28 16.67 257.60 12.99Q261.92 9.31 270.56 9.31L270.56 9.31Q275.76 9.31 279.44 11.31L279.44 11.31Q278.96 9.15 278.96 7.39L278.96 7.39Q278.96 2.91 281.36 0.91Q283.76-1.09 286.72-1.09Q289.68-1.09 291.48 0.47Q293.28 2.03 293.28 4.75Q293.28 7.47 291.84 8.79Q290.40 10.11 288.36 10.11Q286.32 10.11 285 9.03Q283.68 7.95 283.60 5.95 zM266.64 20.91L266.64 20.91L266.64 25.23Q266.64 30.59 267.56 32.51Q268.48 34.43 270.36 34.43Q272.24 34.43 273.08 32.55Q273.92 30.67 273.92 24.83L273.92 24.83L273.92 20.91Q273.92 14.67 273.12 12.71Q272.32 10.75 270.44 10.75Q268.56 10.75 267.60 12.79Q266.64 14.83 266.64 20.91" style="fill: rgb(251, 176, 52);" transform="translate(-226.160,-24.093)"></path></g><g class="path" style="opacity: 1; transform-origin: 116.8px 15.06px; transform: matrix3d(0.91, 0, 0, 0, 0, 0.91, 0, 0, 0, 0, 0.91, 0, 0, 0, 0, 1); animation: 0.462963s linear -0.0509259s 32 normal forwards running animate-luhvcwxn9; transform-box: view-box;"><path d="M324.96 11.55L321.68 11.55L321.68 10.11L344.88 10.11L344.88 11.55L340.56 11.55L349.28 38.11L358.56 11.55L353.20 11.55L353.20 10.11L364.48 10.11L364.48 11.55L360.48 11.55L345.52 54.67Q342.88 62.19 339.60 65.19Q336.32 68.19 331.60 68.19Q326.88 68.19 324.16 66.03Q321.44 63.87 321.44 60.51Q321.44 57.15 323.20 55.39Q324.96 53.63 327.84 53.63L327.84 53.63Q334.48 53.63 334.48 59.15L334.48 59.15Q334.48 60.35 334 62.03L334 62.03L331.20 62.03Q330.56 63.87 331.04 65.07Q331.52 66.27 333.20 66.27L333.20 66.27Q336.48 66.27 339.04 63.03Q341.60 59.79 343.92 53.15L343.92 53.15L345.68 48.19L338.64 48.19L324.96 11.55" style="fill: rgb(255, 221, 0);" transform="translate(-226.160,-24.093)"></path></g><g class="path" style="opacity: 1; transform-origin: 157.4px 5.06px; transform: matrix3d(0.91, 0, 0, 0, 0, 0.91, 0, 0, 0, 0, 0.91, 0, 0, 0, 0, 1); animation: 0.462963s linear -0.025463s 32 normal forwards running animate-luhvcwxn9; transform-box: view-box;"><path d="M388.48 32.43L388.48 32.43L388.48 25.63Q388.48 17.87 387.64 14.31Q386.80 10.75 383.76 10.75L383.76 10.75Q382 10.75 380.92 11.75Q379.84 12.75 379.36 15.07L379.36 15.07Q378.64 18.67 378.64 26.03L378.64 26.03L378.64 32.27Q378.64 40.99 379.16 42.75Q379.68 44.51 380.24 45.63L380.24 45.63Q381.12 47.55 383.68 47.55L383.68 47.55Q386.80 47.55 387.76 43.95L387.76 43.95Q388.48 41.39 388.48 32.43 zM383.52 48.99Q373.52 48.99 368.40 43.87Q363.28 38.75 363.28 29.19Q363.28 19.63 368.76 14.47Q374.24 9.31 384.16 9.31Q394.08 9.31 398.96 14.07Q403.84 18.83 403.84 28.59L403.84 28.59Q403.84 48.99 383.52 48.99L383.52 48.99" style="fill: rgb(193, 216, 47);" transform="translate(-226.160,-24.093)"></path></g><g class="path" style="opacity: 1; transform-origin: 203.08px 5.46px; transform: matrix3d(0.91, 0, 0, 0, 0, 0.91, 0, 0, 0, 0, 0.91, 0, 0, 0, 0, 1); animation: 0.462963s linear 0s 32 normal forwards running animate-luhvcwxn9; transform-box: view-box;"><path d="M452.88 46.75L452.88 48.19L434.64 48.19L433.76 42.35Q432.48 45.55 429.96 47.27Q427.44 48.99 422.48 48.99L422.48 48.99Q410.08 48.99 410.08 35.63L410.08 35.63L410.08 11.55L405.60 11.55L405.60 10.11L424.96 10.11L424.96 37.55Q424.96 42.35 425.64 43.87Q426.32 45.39 428.36 45.39Q430.40 45.39 432 42.91Q433.60 40.43 433.60 36.03L433.60 36.03L433.60 11.55L429.92 11.55L429.92 10.11L448.48 10.11L448.48 46.75L452.88 46.75" style="fill: rgb(72, 197, 246);" transform="translate(-226.160,-24.093)"></path></g></g><text dy="0.35em" fill="#f9396d" font-family="Abril Fatface" font-size="31">wishing  you</text>
</g>
</g><style type="text/css">@keyframes animate-luhvcwxn9 { 0.00% {transform: translate(0.00px,0.00px) rotate(0.00deg) scale(0.91, 0.91) skew(0deg, 0.00deg) ;opacity: 1.00;}4.00% {transform: translate(0.00px,0.00px) rotate(0.00deg) scale(0.91, 0.91) ;}8.00% {animation-timing-function: cubic-bezier(0.69,0.60,0.35,0.27);transform: translate(0.00px,0.00px) rotate(0.00deg) scale(0.91, 0.91) ;}14.00% {transform: translate(0.00px,0.00px) rotate(0.00deg) scale(0.93, 0.93) ;}18.00% {transform: translate(0.00px,0.00px) rotate(0.00deg) scale(0.94, 0.94) ;}22.00% {animation-timing-function: cubic-bezier(0.67,0.66,0.34,0.33);transform: translate(0.00px,0.00px) rotate(0.00deg) scale(0.96, 0.96) ;}26.00% {transform: translate(0.00px,0.00px) rotate(0.00deg) scale(0.97, 0.97) ;}30.00% {transform: translate(0.00px,0.00px) rotate(0.00deg) scale(0.99, 0.99) ;}34.00% {animation-timing-function: cubic-bezier(0.65,0.71,0.32,0.38);transform: translate(0.00px,0.00px) rotate(0.00deg) scale(1.01, 1.01) ;}40.00% {animation-timing-function: cubic-bezier(0.64,0.74,0.31,0.41);transform: translate(0.00px,0.00px) rotate(0.00deg) scale(1.02, 1.02) ;}46.00% {animation-timing-function: cubic-bezier(0.60,0.91,0.23,0.63);transform: translate(0.00px,0.00px) rotate(0.00deg) scale(1.03, 1.03) ;}50.00% {transform: translate(0.00px,0.00px) rotate(0.00deg) scale(1.03, 1.03) ;}54.00% {transform: translate(0.00px,0.00px) rotate(0.00deg) scale(1.03, 1.03) ;}58.00% {animation-timing-function: cubic-bezier(0.69,0.60,0.35,0.27);transform: translate(0.00px,0.00px) rotate(0.00deg) scale(1.03, 1.03) ;}64.00% {transform: translate(0.00px,0.00px) rotate(0.00deg) scale(1.01, 1.01) ;}68.00% {transform: translate(0.00px,0.00px) rotate(0.00deg) scale(1.00, 1.00) ;}72.00% {animation-timing-function: cubic-bezier(0.67,0.66,0.34,0.33);transform: translate(0.00px,0.00px) rotate(0.00deg) scale(0.98, 0.98) ;}76.00% {animation-timing-function: cubic-bezier(0.66,0.68,0.33,0.35);transform: translate(0.00px,0.00px) rotate(0.00deg) scale(0.97, 0.97) ;}82.00% {animation-timing-function: cubic-bezier(0.65,0.71,0.32,0.38);transform: translate(0.00px,0.00px) rotate(0.00deg) scale(0.94, 0.94) ;}88.00% {animation-timing-function: cubic-bezier(0.65,0.73,0.31,0.40);transform: translate(0.00px,0.00px) rotate(0.00deg) scale(0.92, 0.92) ;}94.00% {animation-timing-function: cubic-bezier(0.63,0.80,0.28,0.48);transform: translate(0.00px,0.00px) rotate(0.00deg) scale(0.91, 0.91) ;}100.00% {animation-timing-function: cubic-bezier(0.63,0.80,0.28,0.48);transform: translate(0.00px,0.00px) rotate(0.00deg) scale(0.91, 0.91) ;} }</style><!-- [ldio] generated by https://loading.io --></svg>